<?xml version="1.0" standalone="no"?>
<!DOCTYPE svg PUBLIC "-//W3C//DTD SVG 20010904//EN"
 "http://www.w3.org/TR/2001/REC-SVG-20010904/DTD/svg10.dtd">
<svg version="1.0" xmlns="http://www.w3.org/2000/svg"
 width="96.000000pt" height="96.000000pt" viewBox="0 0 96.000000 96.000000"
 preserveAspectRatio="xMidYMid meet">
<metadata>
Created by potrace 1.14, written by Peter Selinger 2001-2017
</metadata>
<g transform="translate(0.000000,96.000000) scale(0.100000,-0.100000)"
fill="#000000" stroke="none">
<path d="M285 891 c-6 -11 3 -183 14 -261 6 -41 22 -95 34 -120 23 -44 23 -46
5 -65 -35 -36 -56 -136 -59 -282 -2 -105 5 -115 80 -111 l56 3 -2 45 c-8 221
1 275 46 300 44 23 144 -47 165 -117 4 -12 6 -55 6 -95 -1 -40 -1 -82 -1 -93
0 -28 29 -45 77 -45 69 0 77 15 70 134 -3 56 -10 116 -15 135 -10 34 -51 101
-62 101 -3 0 -13 6 -23 13 -17 12 -16 16 12 58 50 73 65 144 58 272 -3 60 -8
112 -10 115 -3 2 -28 5 -56 6 l-52 1 -3 -96 c-5 -145 -33 -219 -97 -257 -25
-15 -28 -15 -47 2 -10 9 -29 45 -42 79 -20 53 -23 78 -21 170 1 59 -1 107 -5
108 -34 5 -125 4 -128 0z"/>
<path d="M440 850 c0 -5 6 -10 13 -11 93 -8 147 -7 147 1 0 6 -8 10 -17 11
-10 0 -46 3 -80 5 -40 3 -63 1 -63 -6z"/>
<path d="M444 808 c-7 -11 9 -15 84 -22 38 -3 62 -2 62 4 0 6 -3 10 -7 11 -5
0 -17 2 -28 4 -52 10 -106 11 -111 3z"/>
<path d="M473 762 c-64 -6 -32 -22 44 -22 49 0 73 4 68 9 -12 12 -66 18 -112
13z"/>
<path d="M440 701 c0 -9 93 -19 124 -13 9 2 14 8 11 13 -8 12 -135 12 -135 0z"/>
<path d="M467 662 c-49 -6 -17 -22 46 -22 35 0 57 4 52 9 -13 11 -63 18 -98
13z"/>
<path d="M465 610 c-4 -6 6 -10 24 -10 16 0 36 -3 45 -6 11 -4 16 -1 16 10 0
12 -10 16 -39 16 -22 0 -43 -4 -46 -10z"/>
<path d="M480 561 c0 -9 24 -21 42 -21 5 0 8 5 6 12 -5 13 -48 22 -48 9z"/>
<path d="M470 378 c0 -8 9 -14 21 -15 12 -1 19 3 16 10 -5 17 -37 21 -37 5z"/>
<path d="M477 342 c-20 -2 -35 -7 -32 -13 8 -12 95 -12 95 0 0 13 -19 17 -63
13z"/>
<path d="M445 280 c-30 -11 -4 -18 55 -15 69 3 70 3 70 13 0 10 -98 12 -125 2z"/>
<path d="M435 221 c-13 -13 1 -17 65 -18 49 0 70 3 67 11 -4 11 -122 18 -132
7z"/>
<path d="M450 164 c0 -15 126 -19 135 -4 4 6 -4 10 -17 11 -13 1 -44 2 -70 3
-33 2 -48 -1 -48 -10z"/>
<path d="M470 120 c-51 -7 -21 -22 40 -19 41 2 88 15 70 20 -17 4 -80 4 -110
-1z"/>
<path d="M440 75 c0 -7 27 -11 75 -11 50 0 74 3 72 10 -5 15 -147 16 -147 1z"/>
</g>
</svg>
